<svg width="129" height="104" viewBox="0 0 129 104" fill="none" xmlns="http://www.w3.org/2000/svg">
<path d="M91.5729 66.7894C91.5729 50.3953 78.2762 37.1052 61.874 37.1052H37.125V66.7894H61.874V103.895H91.5729V66.7894Z" fill="#944300"/>
<path d="M0 69.2631C2.4749e-06 88.3896 15.5127 103.895 34.6486 103.895H54.4479V74.2105H34.6486C31.9149 74.2105 29.6988 71.9955 29.6988 69.2631V66.7894H0V69.2631Z" fill="#944300"/>
<path d="M61.8726 0C98.7776 0 128.695 29.9026 128.695 66.7895V103.895H98.9961V66.7895C98.9961 46.2967 82.3754 29.6842 61.8726 29.6842H34.6486C31.9149 29.6842 29.6988 31.8992 29.6988 34.6316V37.1053H0V34.6316C2.4749e-06 15.5051 15.5127 0 34.6486 0H61.8726Z" fill="#944300"/>
</svg>
